<?xml version="1.0" encoding="UTF-8"?>
<svg width="46px" height="44px" viewBox="0 0 46 44" version="1.1" xmlns="http://www.w3.org/2000/svg" xmlns:xlink="http://www.w3.org/1999/xlink">
    <g id="Symbols" stroke="none" stroke-width="1" fill="none" fill-rule="evenodd">
        <path d="M17.2578125,24.7734375 L17.2578125,43.1425781 L0.294921875,43.1425781 L0.294921875,28.640625 C0.294921875,20.7890232 1.2324125,15.1054863 3.10742188,11.5898438 C5.56837168,6.90232031 9.46481709,3.35743389 14.796875,0.955078125 L18.6640625,7.10742188 C15.4413901,8.45507812 13.068367,10.4619007 11.5449219,13.1279297 C10.0214768,15.7939586 9.17187588,19.6757558 8.99609375,24.7734375 L17.2578125,24.7734375 Z M44.5039062,24.7734375 L44.5039062,43.1425781 L27.5410156,43.1425781 L27.5410156,28.640625 C27.5410156,20.7890232 28.4785063,15.1054863 30.3535156,11.5898438 C32.8144654,6.90232031 36.7109108,3.35743389 42.0429688,0.955078125 L45.9101562,7.10742188 C42.6874839,8.45507812 40.3144607,10.4619007 38.7910156,13.1279297 C37.2675705,15.7939586 36.4179696,19.6757558 36.2421875,24.7734375 L44.5039062,24.7734375 Z" id="“" fill="#FFFFFF" fill-rule="nonzero" transform="translate(23.102539, 22.048828) scale(-1, 1) rotate(-180.000000) translate(-23.102539, -22.048828) "></path>
    </g>
</svg>
