<?xml version="1.0" encoding="UTF-8"?><svg id="Layer_1" xmlns="http://www.w3.org/2000/svg" viewBox="0 0 214 81.14"><defs><style>.cls-1{fill:#fff;}</style></defs><path class="cls-1" d="M69.93,42.83c0,.59-.46,1.1-1.1,1.1-.14,0-.32-.05-.46-.09-3.48-1.37-6.36-2.52-9.47-3.29,1.46,5.26,2.75,11.81,2.75,16.79,0,10.16-1.74,19.81-14.69,19.81-11.58,0-31.62-11.39-31.62-24.62,0-10.2,13.36-16.02,29.97-16.02,3.34,0,6.82,.32,10.39,1.05-2.61-8.74-5.99-17.57-10.48-25.81-2.24-4.16-3.66-5.58-4.07-5.58-.14,0-.23,.18-.23,.41,0,1.05,.59,3.62,1.14,5.63,2.15,7.78,5.26,15.97,10.57,22.51,.18,.23,.37,.46,.37,.82,0,.55-.5,.96-1.05,.96-.32,0-.59-.18-.82-.46-5.22-6.22-8.97-15.33-11.17-23.47-.73-2.65-.96-4.9-.96-6.04s.41-2.56,1.83-2.56c2.43,0,5.08,4.58,6.22,6.63,4.76,8.46,8.24,17.62,11.12,27.41,3.43,.87,7.18,2.1,10.94,3.66,.55,.23,.82,.59,.82,1.14Zm-13.5-2.88c-3.84-.82-7.55-1.24-11.07-1.24-15.19,0-27.77,4.99-27.77,13.82,0,11.85,19.68,22.42,29.24,22.42s12.58-5.08,12.58-16.79c0-7.05-1.6-12.63-2.97-18.21Z"/><path class="cls-1" d="M81.88,43.61c.23-.32,.5-.55,.91-.55,.37,0,.69,.32,.69,.73,0,.32-.18,.64-.41,1.01-1.46,2.15-4.67,5.31-7.6,5.31-2.24,0-3.89-1.46-3.89-3.98,0-2.84,2.01-5.86,4.35-5.86,1.1,0,1.78,.69,1.78,1.78,0,1.83-2.01,4.16-3.66,5.49,.32,.55,.91,.73,1.51,.73,2.43,0,4.85-2.7,6.31-4.67Zm-8.42,2.33c1.05-1.19,2.43-2.75,2.43-3.8,0-.14-.09-.18-.18-.18-.73,0-2.24,2.06-2.24,3.98Z"/><path class="cls-1" d="M83.57,49.42l-.14,1.6c2.65,4.07,4.21,8.56,4.21,13.73,0,2.88-.14,6.31-2.52,6.31-3.39,0-3.93-8.42-3.93-11.03s.09-5.08,.32-8.15c-.5-1.24-1.14-2.24-2.01-3.02-.32-.28-.55-.59-.55-1.14s.46-1.19,1.01-1.19c.64,0,1.19,.55,1.92,.69,.46-10.3,3.84-27.27,6.36-33.86,1.1-2.88,2.15-3.84,3.07-3.84,2.06,0,2.38,3.25,2.38,5.08,0,9.11-3.48,21.6-9.52,29.06-.18,1.46-.27,2.43-.37,3.89,.91,.18,1.33,.23,2.1,.23,2.75,0,5.08-1.51,6.86-4.12,.23-.32,.5-.59,.87-.59s.73,.27,.73,.69c0,.32-.09,.64-.32,1.01-1.88,2.93-5.12,4.9-8.37,4.9-1.01,0-1.33-.05-2.1-.23Zm1.56,19.77c.55,0,.64-2.56,.64-4.07,0-3.84-.64-7.41-2.56-10.84-.09,1.65-.09,3.48-.09,5.22,0,4.07,.96,9.7,2.01,9.7Zm6.54-53.99c0-1.83-.05-3.16-.5-3.16-.69,0-2.7,7.37-3.52,11.16-.5,2.38-1.33,6.27-3.02,16.89,4.62-7.6,7.05-19.17,7.05-24.89Z"/><path class="cls-1" d="M94.51,49.42l-.14,1.6c2.65,4.07,4.21,8.56,4.21,13.73,0,2.88-.14,6.31-2.52,6.31-3.39,0-3.93-8.42-3.93-11.03s.09-5.08,.32-8.15c-.5-1.24-1.14-2.24-2.01-3.02-.32-.28-.55-.59-.55-1.14s.46-1.19,1.01-1.19c.64,0,1.19,.55,1.92,.69,.46-10.3,3.84-27.27,6.36-33.86,1.1-2.88,2.15-3.84,3.07-3.84,2.06,0,2.38,3.25,2.38,5.08,0,9.11-3.48,21.6-9.52,29.06-.18,1.46-.27,2.43-.37,3.89,.91,.18,1.33,.23,2.1,.23,2.75,0,5.08-1.51,6.86-4.12,.23-.32,.5-.59,.87-.59s.73,.27,.73,.69c0,.32-.09,.64-.32,1.01-1.88,2.93-5.12,4.9-8.37,4.9-1.01,0-1.33-.05-2.1-.23Zm1.56,19.77c.55,0,.64-2.56,.64-4.07,0-3.84-.64-7.41-2.56-10.84-.09,1.65-.09,3.48-.09,5.22,0,4.07,.96,9.7,2.01,9.7Zm6.54-53.99c0-1.83-.05-3.16-.5-3.16-.69,0-2.7,7.37-3.52,11.16-.5,2.38-1.33,6.27-3.02,16.89,4.62-7.6,7.05-19.17,7.05-24.89Z"/><path class="cls-1" d="M114.27,43.61c.27-.37,.5-.55,.87-.55s.78,.32,.78,.73c0,.37-.23,.73-.46,1.1-1.42,2.1-4.58,5.4-7.28,5.4-1.56,0-2.42-1.1-2.42-2.75,0-1.56,.91-2.75,.91-3.62,0-.27-.41-.46-.59-.46-.14,0-.27,.09-.37,.23-.23,.37-.55,.82-.87,1.1-.23,.18-.59,.37-.87,.37-.37,0-.73-.27-.73-.64,0-.23,.18-.5,.32-.69,.32-.41,.46-.64,.46-.96,0-.27-.18-.37-.18-1.01,0-.78,.78-1.24,1.42-1.24,.32,0,.64,.14,.82,.32,.14,.14,.18,.32,.23,.5,0,0,1.01,.27,1.37,.46,.64,.32,1.05,.91,1.05,1.56,0,1.56-1.01,2.47-1.01,3.94,0,.59,.37,1.01,1.01,1.01,1.6,0,4.21-2.93,5.54-4.81Z"/><path class="cls-1" d="M120.82,43.61c.23-.32,.5-.55,.91-.55,.37,0,.69,.32,.69,.73,0,.32-.18,.64-.41,1.01-1.46,2.15-4.67,5.31-7.6,5.31-2.24,0-3.89-1.46-3.89-3.98,0-2.84,2.01-5.86,4.35-5.86,1.1,0,1.78,.69,1.78,1.78,0,1.83-2.01,4.16-3.66,5.49,.32,.55,.91,.73,1.51,.73,2.43,0,4.85-2.7,6.31-4.67Zm-8.42,2.33c1.05-1.19,2.43-2.75,2.43-3.8,0-.14-.09-.18-.18-.18-.73,0-2.24,2.06-2.24,3.98Z"/><path class="cls-1" d="M132.08,51.8c.87,4.99,1.33,9.84,1.33,14.5,0,9.34-4.21,10.71-6.68,10.71-3.61,0-6.41-4.9-6.41-10.3s3.29-10.62,9.79-15.7c-.37-1.92-.78-3.84-1.28-5.81-.92,2.01-2.7,5.17-5.4,5.17-2.01,0-2.84-1.74-2.84-3.8,0-1.33,.18-2.33,.46-3.16,.18-.5,.55-.78,.96-.78,.46,0,.87,.37,.87,.91,0,.59-.5,1.51-.5,3.07,0,.64,.14,1.92,1.1,1.92,2.15,0,4.03-4.3,4.53-6.22,.14-.55,.41-1.05,.96-1.05,.5,0,.82,.28,.96,.78,.73,2.7,1.28,5.17,1.78,7.73,2.56-1.88,5.08-3.75,7.05-6.45,.27-.37,.46-.55,.82-.55s.69,.32,.69,.73c0,.32-.14,.64-.37,1.01-1.92,2.97-4.94,5.03-7.82,7.28Zm-5.26,23.38c4.12,0,4.76-5.44,4.76-8.88,0-4.3-.37-8.65-1.14-13.22-5.49,4.53-8.28,9.11-8.28,13.64,0,4.76,2.47,8.46,4.67,8.46Z"/><path class="cls-1" d="M170.28,52.31c-9.61,0-18.67-7-18.67-17.3,0-13.64,12.54-27.23,26.72-27.23,5.31,0,9.24,3.34,9.24,8.24s-2.79,9.88-7.14,12.72c-.32,.18-.64,.32-1.05,.32-.5,0-1.1-.59-1.1-1.19,0-.55,.37-.91,.91-1.24,3.39-2.01,6.04-5.99,6.04-10.39,0-3.8-3.2-6.27-6.96-6.27-12.54,0-24.3,12.03-24.3,25.03,0,8.65,7.6,15.24,16.29,15.24,7.14,0,13.82-2.93,19.81-7.41,.14-.09,.32-.18,.55-.18,.55,0,.87,.37,.87,.91,0,.37-.23,.73-.41,.87-3.98,3.75-12.45,7.87-20.82,7.87Z"/><path class="cls-1" d="M194.58,48.55c0-.87,.87-3.71,2.01-3.71s2.06,.09,2.06,1.6-1.88,3.48-2.93,3.48c-.59,0-1.14-.5-1.14-1.37Z"/></svg>