<?xml version="1.0" encoding="UTF-8"?><svg id="Icons" xmlns="http://www.w3.org/2000/svg" width="96" height="96" viewBox="0 0 96 96"><defs><style>.cls-1{fill:#ff5460;stroke-width:0px;}</style></defs><path class="cls-1" d="m54.92,71.55h-27.69v-4.5h13.94v-8.45H15.4c-1.86,0-3.37-1.51-3.37-3.37V15.37c0-1.86,1.51-3.37,3.37-3.37h56.04c1.86,0,3.37,1.51,3.37,3.37v29.95h-4.5v-28.82H16.52v37.6h38.39v4.5h-9.25v8.45h9.25v4.5Z"/><path class="cls-1" d="m81.35,84h-18.67c-1.45,0-2.62-1.18-2.62-2.62v-28.38c0-1.45,1.18-2.62,2.62-2.62h18.67c1.45,0,2.62,1.18,2.62,2.62v28.38c0,1.45-1.18,2.62-2.62,2.62Zm-16.79-4.5h14.92v-24.63h-14.92v24.63Z"/><circle class="cls-1" cx="72.03" cy="75.53" r="2.21"/></svg>